<?xml version="1.0" encoding="utf-8"?>
<!-- Svg Vector Icons : http://www.onlinewebfonts.com/icon -->
<!DOCTYPE svg PUBLIC "-//W3C//DTD SVG 1.1//EN" "http://www.w3.org/Graphics/SVG/1.1/DTD/svg11.dtd">
<svg version="1.1" xmlns="http://www.w3.org/2000/svg" xmlns:xlink="http://www.w3.org/1999/xlink" x="0px" y="0px" viewBox="0 0 1000 1000" enable-background="new 0 0 1000 1000" xml:space="preserve">
<metadata> Svg Vector Icons : http://www.onlinewebfonts.com/icon </metadata>
<g><g transform="translate(0.000000,511.000000) scale(0.100000,-0.100000)"><path d="M6826.2,4694c-638.1-84.3-1172.8-346.9-1619.3-795.3c-398.6-396.7-638.1-839.3-760.8-1402.7c-55.6-256.8-59.4-774.2-7.7-1040.5C4633.9,451.3,5343-357.4,6301.1-669.7c404.3-130.3,933.2-166.7,1339.5-90.1c1000.3,185.9,1833.9,916,2132.8,1862.6c101.6,321.9,128.4,496.3,126.5,860.4c-1.9,482.9-78.6,808.7-287.4,1228.3c-373.7,753.1-1090.4,1299.2-1924,1466C7479.6,4699.7,7015.9,4718.9,6826.2,4694z M8982,3160.9l325.8-325.8L8023.8,1551.3C7318.7,844.1,6732.3,267.3,6720.8,267.3c-11.5,0-400.5,381.3-868.1,848.9l-847,847l325.8,325.8l325.8,325.8l523.1-523.1c285.5-285.5,530.8-521.2,544.2-521.2c11.5,0,446.5,431.2,967.7,958.1c519.3,527,948.6,958.1,954.3,958.1S8803.8,3339.1,8982,3160.9z"/><path d="M100-1419V-4485h4292.5H8685v1533v1533h-306.6h-306.6v-1009.9v-1011.8l-810.6,810.6l-808.7,808.7L6236-2036l-214.6-216.5l808.7-808.7l810.6-810.6H4392.5H1144.4l810.6,810.6l808.7,808.7L2549-2036l-216.5,214.6l-808.7-808.7l-810.6-810.6v2134.7V826.9l46-28.7c24.9-17.3,848.9-603.6,1832-1306.9c983.1-701.4,1797.5-1274.3,1809-1270.5c28.7,7.7,1101.9,768.4,1103.8,781.8c0,5.8-46,38.3-103.5,72.8c-57.5,34.5-174.4,113.1-258.7,176.3c-86.2,63.2-159,115-164.8,115c-5.7,0-132.2-88.2-283.6-195.5c-149.5-107.3-285.5-195.5-300.9-195.5S3719.9-564.3,2932.3-0.9L1498.9,1024.3l1140.2,5.7l1140.2,3.8v306.6v306.6H1939.6H100V-1419z"/></g></g>
</svg>